<svg width="203" height="40" viewBox="0 0 203 40" fill="none" xmlns="http://www.w3.org/2000/svg">
<path d="M9.32006 37.33C6.39006 35.65 4.11006 33.32 2.49006 30.35C0.870059 27.38 0.0600586 24.06 0.0600586 20.37C0.0600586 16.68 0.880065 13.28 2.52007 10.32C4.16007 7.36 6.44007 5.05 9.38007 3.38C12.3101 1.71 15.6301 0.880005 19.3401 0.880005C23.0501 0.880005 26.4201 1.72 29.3501 3.41C32.2801 5.09 34.5601 7.42001 36.1801 10.39C37.8001 13.36 38.6101 16.68 38.6101 20.37C38.6101 24.06 37.7901 27.46 36.1501 30.42C34.5101 33.38 32.2301 35.69 29.3001 37.36C26.3701 39.03 23.0501 39.86 19.3401 39.86C15.6301 39.86 12.2601 39.02 9.33006 37.33H9.32006ZM24.3301 30.5C25.7701 29.5 26.8901 28.12 27.6801 26.36C28.4701 24.6 28.8701 22.6 28.8701 20.37C28.8701 18.14 28.4701 16.15 27.6801 14.38C26.8901 12.62 25.7701 11.24 24.3301 10.24C22.8901 9.24001 21.2201 8.74001 19.3301 8.74001C17.4401 8.74001 15.7801 9.24001 14.3501 10.24C12.9201 11.24 11.8001 12.62 11.0101 14.38C10.2201 16.14 9.82006 18.14 9.82006 20.37C9.82006 22.6 10.2201 24.59 11.0101 26.36C11.8001 28.12 12.9201 29.5 14.3501 30.5C15.7801 31.5 17.4501 32 19.3301 32C21.2101 32 22.8801 31.5 24.3301 30.5Z" fill="#005840"/>
<path d="M53.78 38.19C52.17 37.11 51.06 35.46 50.45 33.26C50.43 33.19 50.36 33.14 50.29 33.14H49.51C49.4 33.14 49.32 33.24 49.35 33.35L50.72 39.32C50.74 39.43 50.66 39.53 50.56 39.53H42.63C42.54 39.53 42.46 39.45 42.46 39.36V1.37C42.46 1.28 42.54 1.2 42.63 1.2H51.25C51.34 1.2 51.42 1.27 51.42 1.37L51.5 11.33C51.52 12.08 51.35 12.93 50.99 13.88C50.63 14.83 50.2 15.84 49.68 16.91C49.56 17.15 49.47 17.33 49.41 17.47C49.36 17.58 49.44 17.71 49.56 17.71H50.29C50.36 17.71 50.42 17.67 50.45 17.61C51.44 15.26 52.68 13.57 54.18 12.54C55.69 11.5 57.5 10.98 59.61 10.98C62.19 10.98 64.46 11.6 66.4 12.84C68.34 14.08 69.83 15.79 70.88 17.97C71.92 20.15 72.44 22.62 72.44 25.39C72.44 28.16 71.91 30.63 70.85 32.83C69.79 35.03 68.29 36.75 66.35 37.99C64.41 39.23 62.16 39.85 59.62 39.85C57.39 39.85 55.46 39.3 53.82 38.19H53.78ZM60.43 31.85C61.34 31.24 62.04 30.38 62.53 29.27C63.02 28.17 63.26 26.89 63.26 25.45C63.26 24.01 63.01 22.73 62.53 21.61C62.04 20.5 61.34 19.63 60.43 19.02C59.52 18.41 58.46 18.1 57.25 18.1C56.04 18.1 54.98 18.41 54.08 19.02C53.18 19.63 52.49 20.49 52.01 21.6C51.53 22.71 51.29 23.99 51.29 25.45C51.29 26.91 51.53 28.17 52.01 29.27C52.49 30.38 53.18 31.23 54.08 31.85C54.98 32.46 56.03 32.77 57.25 32.77C58.47 32.77 59.52 32.46 60.43 31.85Z" fill="#005840"/>
<path d="M81.5401 38.07C79.2901 36.89 77.5701 35.21 76.3701 33.03C75.1701 30.86 74.5701 28.33 74.5701 25.44C74.5701 22.55 75.1801 19.92 76.4001 17.74C77.6201 15.57 79.3501 13.9 81.5801 12.73C83.8201 11.56 86.4301 10.98 89.4201 10.98C92.0401 10.98 94.3501 11.43 96.3601 12.32C98.3601 13.21 99.9901 14.49 101.22 16.17C102.42 17.8 103.2 19.73 103.56 21.97C103.58 22.07 103.5 22.16 103.4 22.16L94.4101 22.65C94.3201 22.65 94.2501 22.59 94.2301 22.51C94.1101 21.75 93.8401 21.04 93.4101 20.39C92.9601 19.7 92.3801 19.15 91.6901 18.75C91.0001 18.35 90.2401 18.15 89.4201 18.15C88.2601 18.15 87.2501 18.45 86.3901 19.06C85.5301 19.67 84.8601 20.52 84.4001 21.61C83.9401 22.71 83.7101 23.98 83.7101 25.45C83.7101 26.92 83.9401 28.16 84.4001 29.26C84.8601 30.36 85.5301 31.21 86.3901 31.81C87.2501 32.42 88.2701 32.72 89.4201 32.72C90.2801 32.72 91.0701 32.51 91.8001 32.08C92.5301 31.65 93.1201 31.08 93.5601 30.36C93.9801 29.68 94.2201 28.95 94.3001 28.16C94.3001 28.07 94.3901 28 94.4801 28.01L103.46 28.5C103.56 28.5 103.63 28.6 103.62 28.69C103.27 30.96 102.49 32.93 101.28 34.59C100.04 36.29 98.4201 37.6 96.4001 38.51C94.3901 39.42 92.0601 39.87 89.4201 39.87C86.4101 39.87 83.7801 39.28 81.5401 38.09V38.07ZM78.8201 0H86.0101C86.0101 0 86.1001 0.0200052 86.1401 0.0600052L88.9801 3.21001C88.9801 3.21001 89.0601 3.27 89.1101 3.27H89.7901C89.7901 3.27 89.8801 3.25001 89.9201 3.21001L92.7601 0.0600052C92.7601 0.0600052 92.8401 0 92.8901 0H100.08C100.23 0 100.3 0.170006 100.21 0.280006L93.4601 7.83C93.4601 7.83 93.3801 7.89001 93.3301 7.89001H85.6001C85.6001 7.89001 85.5101 7.87 85.4701 7.83L78.7201 0.280006C78.6201 0.170006 78.7001 0 78.8501 0H78.8201Z" fill="#005840"/>
<path d="M135.05 32.3V39.37C135.05 39.46 134.97 39.54 134.88 39.54H130.53C129.05 39.54 127.96 39.28 127.26 38.75C126.56 38.22 126.2 37.53 126.2 36.68C126.2 36.15 126.32 35.58 126.57 34.97L127.13 33.49C127.17 33.38 127.09 33.26 126.97 33.26H126.25C126.19 33.26 126.13 33.3 126.1 33.35C124.99 35.51 123.64 37.14 122.06 38.22C120.46 39.32 118.46 39.86 116.07 39.86C113.97 39.86 112.12 39.54 110.54 38.88C108.95 38.23 107.72 37.28 106.85 36.03C105.98 34.78 105.54 33.3 105.54 31.57C105.54 29.57 106.06 27.93 107.09 26.64C108.12 25.35 109.64 24.34 111.63 23.61C113.63 22.88 116.15 22.35 119.19 22.01L123.76 21.5V20.81C123.76 19.72 123.34 18.86 122.5 18.22C121.66 17.58 120.55 17.26 119.16 17.26C118.34 17.26 117.61 17.42 116.95 17.73C116.3 18.04 115.79 18.46 115.41 18.99C115.07 19.47 114.85 19.99 114.76 20.54C114.75 20.63 114.67 20.69 114.58 20.68L106.3 20.17C106.2 20.17 106.13 20.08 106.14 19.99C106.32 18.14 106.96 16.55 108.06 15.22C109.19 13.85 110.73 12.81 112.68 12.09C114.63 11.38 116.92 11.02 119.56 11.02C123.73 11.02 126.94 11.9 129.19 13.67C131.44 15.43 132.57 17.99 132.57 21.34V30.37C132.57 31.03 132.72 31.49 133.01 31.76C133.3 32.03 133.78 32.16 134.44 32.16H134.83C134.92 32.16 135 32.24 135 32.33L135.05 32.3ZM122.15 32.07C123.19 31.02 123.73 29.61 123.77 27.85V27.05L119.36 27.56C117.81 27.76 116.62 28.12 115.81 28.64C114.99 29.17 114.58 29.92 114.58 30.9C114.58 31.74 114.89 32.41 115.5 32.9C116.11 33.4 116.95 33.65 118 33.65C119.73 33.65 121.11 33.12 122.16 32.07H122.15Z" fill="#005840"/>
<path d="M138.39 11.31H146.29C146.41 11.31 146.49 11.43 146.45 11.54L144.14 17.52C144.1 17.63 144.18 17.75 144.3 17.75H145.05C145.11 17.75 145.17 17.72 145.2 17.66C146.56 15.28 148.01 13.58 149.56 12.55C151.13 11.51 153.06 10.99 155.36 10.99C158.83 10.99 161.57 12.06 163.58 14.21C165.58 16.36 166.59 19.76 166.59 24.41V39.37C166.59 39.46 166.51 39.54 166.42 39.54H157.8C157.71 39.54 157.63 39.46 157.63 39.37V24.87C157.63 22.61 157.23 20.92 156.44 19.82C155.65 18.72 154.4 18.16 152.68 18.16C150.96 18.16 149.56 18.76 148.6 19.95C147.65 21.14 147.17 22.83 147.17 25V39.37C147.17 39.46 147.09 39.54 147 39.54H138.38C138.29 39.54 138.21 39.46 138.21 39.37V11.49C138.21 11.4 138.29 11.32 138.38 11.32L138.39 11.31Z" fill="#005840"/>
<path d="M201.85 21.76H189.94V9.85001C189.94 9.79001 189.9 9.73 189.85 9.7C189.62 9.59 188.97 9.45 187.7 9.45C186.43 9.45 185.77 9.59 185.55 9.7C185.49 9.73 185.46 9.79001 185.46 9.85001V21.76H173.55C173.48 21.76 173.42 21.8 173.39 21.86C173.29 22.09 173.2 22.74 173.2 24C173.2 25.26 173.3 25.91 173.39 26.14C173.42 26.2 173.48 26.24 173.55 26.24H185.46V38.15C185.46 38.21 185.5 38.27 185.55 38.3C185.78 38.41 186.43 38.55 187.7 38.55C188.97 38.55 189.63 38.41 189.85 38.3C189.91 38.27 189.94 38.21 189.94 38.15V26.24H201.85C201.91 26.24 201.97 26.2 202 26.15C202.11 25.92 202.25 25.27 202.25 24C202.25 22.73 202.11 22.07 202 21.85C201.97 21.79 201.91 21.76 201.85 21.76Z" fill="#005840"/>
</svg>
